<svg width="29" height="28" viewBox="0 0 29 28" fill="none" xmlns="http://www.w3.org/2000/svg">
<g id="SN Icons 28-28">
<g id="Vector">
<path d="M19.0969 4C22.0809 4 24.5 6.41906 24.5 9.40313C24.5 12.3872 22.0809 14.8063 19.0969 14.8063C16.1128 14.8063 13.6937 12.3872 13.6937 9.40313C13.6937 6.41906 16.1128 4 19.0969 4Z" fill="#252525"/>
<path d="M8.94043 6.88809C10.3295 6.88809 11.4555 8.01411 11.4555 9.40313C11.4555 10.7921 10.3295 11.9182 8.94043 11.9182C7.55141 11.9182 6.42539 10.7921 6.42539 9.40313C6.42539 8.01411 7.55141 6.88809 8.94043 6.88809Z" fill="#252525"/>
<path d="M19.0969 16.0818C21.0176 16.0818 22.5746 17.6389 22.5746 19.5596C22.5746 21.4803 21.0176 23.0373 19.0969 23.0373C17.1762 23.0373 15.6191 21.4803 15.6191 19.5596C15.6191 17.6389 17.1762 16.0818 19.0969 16.0818Z" fill="#252525"/>
<path d="M8.94043 15.1191C11.3928 15.1191 13.3809 17.1072 13.3809 19.5596C13.3809 22.0119 11.3928 24 8.94043 24C6.48805 24 4.5 22.0119 4.5 19.5596C4.5 17.1072 6.48805 15.1191 8.94043 15.1191Z" fill="#252525"/>
</g>
</g>
</svg>
