<svg width="21" height="24" viewBox="0 0 21 24" fill="none" xmlns="http://www.w3.org/2000/svg">
<g id="Union">
<mask id="path-1-outside-1_88_12998" maskUnits="userSpaceOnUse" x="-0.900391" y="0" width="22" height="24" fill="black">
<rect fill="white" x="-0.900391" width="22" height="24"/>
<path fill-rule="evenodd" clip-rule="evenodd" d="M10.2918 1C5.84765 1 2.24492 4.60272 2.24492 9.04691V14.8796L0.402333 17.3364C-0.339312 18.3253 0.366275 19.7364 1.60234 19.7364H6.17166C6.37024 21.8368 8.13881 23.4801 10.2912 23.4801C12.4436 23.4801 14.2121 21.8368 14.4107 19.7364H18.9813C20.2174 19.7364 20.923 18.3253 20.1813 17.3364L18.3387 14.8796V9.04691C18.3387 4.60272 14.736 1 10.2918 1ZM12.393 19.7364H8.18941C8.37446 20.7288 9.24509 21.4801 10.2912 21.4801C11.3373 21.4801 12.2079 20.7288 12.393 19.7364ZM4.24492 9.04691C4.24492 5.70729 6.95222 3 10.2918 3C13.6314 3 16.3387 5.70729 16.3387 9.04691V15.213C16.3387 15.4293 16.4089 15.6399 16.5387 15.813L17.9813 17.7364H2.60233L4.04492 15.813C4.17475 15.6399 4.24492 15.4293 4.24492 15.213V9.04691Z"/>
</mask>
<path fill-rule="evenodd" clip-rule="evenodd" d="M10.2918 1C5.84765 1 2.24492 4.60272 2.24492 9.04691V14.8796L0.402333 17.3364C-0.339312 18.3253 0.366275 19.7364 1.60234 19.7364H6.17166C6.37024 21.8368 8.13881 23.4801 10.2912 23.4801C12.4436 23.4801 14.2121 21.8368 14.4107 19.7364H18.9813C20.2174 19.7364 20.923 18.3253 20.1813 17.3364L18.3387 14.8796V9.04691C18.3387 4.60272 14.736 1 10.2918 1ZM12.393 19.7364H8.18941C8.37446 20.7288 9.24509 21.4801 10.2912 21.4801C11.3373 21.4801 12.2079 20.7288 12.393 19.7364ZM4.24492 9.04691C4.24492 5.70729 6.95222 3 10.2918 3C13.6314 3 16.3387 5.70729 16.3387 9.04691V15.213C16.3387 15.4293 16.4089 15.6399 16.5387 15.813L17.9813 17.7364H2.60233L4.04492 15.813C4.17475 15.6399 4.24492 15.4293 4.24492 15.213V9.04691Z" fill="#252525"/>
<path d="M2.24492 14.8796L2.32492 14.9396L2.34492 14.913V14.8796H2.24492ZM0.402333 17.3364L0.322333 17.2764L0.402333 17.3364ZM6.17166 19.7364L6.27122 19.727L6.26265 19.6364H6.17166V19.7364ZM14.4107 19.7364V19.6364H14.3197L14.3112 19.727L14.4107 19.7364ZM18.3387 14.8796H18.2387V14.913L18.2587 14.9396L18.3387 14.8796ZM12.393 19.7364L12.4913 19.7547L12.5133 19.6364H12.393V19.7364ZM8.18941 19.7364V19.6364H8.06904L8.0911 19.7547L8.18941 19.7364ZM16.5387 15.813L16.6187 15.753L16.5387 15.813ZM17.9813 17.7364V17.8364H18.1813L18.0613 17.6764L17.9813 17.7364ZM2.60233 17.7364L2.52233 17.6764L2.40233 17.8364H2.60233V17.7364ZM4.04492 15.813L3.96492 15.753L4.04492 15.813ZM2.34492 9.04691C2.34492 4.65795 5.90288 1.1 10.2918 1.1V0.9C5.79242 0.9 2.14492 4.54749 2.14492 9.04691H2.34492ZM2.34492 14.8796V9.04691H2.14492V14.8796H2.34492ZM0.482333 17.3964L2.32492 14.9396L2.16492 14.8196L0.322333 17.2764L0.482333 17.3964ZM1.60234 19.6364C0.448678 19.6364 -0.209869 18.3193 0.482333 17.3964L0.322333 17.2764C-0.468756 18.3312 0.283871 19.8364 1.60234 19.8364V19.6364ZM6.17166 19.6364H1.60234V19.8364H6.17166V19.6364ZM10.2912 23.3801C8.19088 23.3801 6.46499 21.7765 6.27122 19.727L6.07211 19.7458C6.27549 21.8971 8.08674 23.5801 10.2912 23.5801V23.3801ZM14.3112 19.727C14.1174 21.7765 12.3915 23.3801 10.2912 23.3801V23.5801C12.4956 23.5801 14.3069 21.8971 14.5103 19.7458L14.3112 19.727ZM18.9813 19.6364H14.4107V19.8364H18.9813V19.6364ZM20.1013 17.3964C20.7935 18.3193 20.135 19.6364 18.9813 19.6364V19.8364C20.2998 19.8364 21.0524 18.3312 20.2613 17.2764L20.1013 17.3964ZM18.2587 14.9396L20.1013 17.3964L20.2613 17.2764L18.4187 14.8196L18.2587 14.9396ZM18.2387 9.04691V14.8796H18.4387V9.04691H18.2387ZM10.2918 1.1C14.6808 1.1 18.2387 4.65795 18.2387 9.04691H18.4387C18.4387 4.54749 14.7912 0.9 10.2918 0.9V1.1ZM12.393 19.6364H8.18941V19.8364H12.393V19.6364ZM8.0911 19.7547C8.28482 20.7937 9.19606 21.5801 10.2912 21.5801V21.3801C9.29413 21.3801 8.4641 20.664 8.28771 19.7181L8.0911 19.7547ZM10.2912 21.5801C11.3863 21.5801 12.2976 20.7937 12.4913 19.7547L12.2947 19.7181C12.1183 20.664 11.2883 21.3801 10.2912 21.3801V21.5801ZM10.2918 2.9C6.89699 2.9 4.14492 5.65206 4.14492 9.04691H4.34492C4.34492 5.76252 7.00744 3.1 10.2918 3.1V2.9ZM16.4387 9.04691C16.4387 5.65206 13.6867 2.9 10.2918 2.9V3.1C13.5762 3.1 16.2387 5.76252 16.2387 9.04691H16.4387ZM16.4387 15.213V9.04691H16.2387V15.213H16.4387ZM16.6187 15.753C16.5019 15.5972 16.4387 15.4077 16.4387 15.213H16.2387C16.2387 15.451 16.3159 15.6825 16.4587 15.873L16.6187 15.753ZM18.0613 17.6764L16.6187 15.753L16.4587 15.873L17.9013 17.7964L18.0613 17.6764ZM2.60233 17.8364H17.9813V17.6364H2.60233V17.8364ZM3.96492 15.753L2.52233 17.6764L2.68233 17.7964L4.12492 15.873L3.96492 15.753ZM4.14492 15.213C4.14492 15.4077 4.08176 15.5972 3.96492 15.753L4.12492 15.873C4.26773 15.6825 4.34492 15.451 4.34492 15.213H4.14492ZM4.14492 9.04691V15.213H4.34492V9.04691H4.14492Z" fill="#252525" mask="url(#path-1-outside-1_88_12998)"/>
</g>
</svg>
