<svg width="29" height="28" viewBox="0 0 29 28" fill="none" xmlns="http://www.w3.org/2000/svg">
<g id="SN Icons 28-28">
<path id="icon" d="M17.7589 14.5921C17.7589 13.8778 17.2232 13.2974 16.5982 13.2974C15.9286 13.2974 15.3929 13.8778 15.3929 14.5921C15.3929 15.2617 15.9286 15.8421 16.5982 15.8421C17.2232 15.8421 17.7589 15.2617 17.7589 14.5921ZM12.4018 13.2974C11.7768 13.2974 11.2411 13.8778 11.2411 14.5921C11.2411 15.2617 11.7768 15.8421 12.4018 15.8421C13.0714 15.8421 13.5625 15.2617 13.5625 14.5921C13.6071 13.8778 13.0714 13.2974 12.4018 13.2974ZM24.5 6.06529C24.5 4.77065 23.4286 3.69922 22.1339 3.69922H6.82143C5.52679 3.69922 4.5 4.77065 4.5 6.06529V21.5117C4.5 22.851 5.52679 23.8778 6.82143 23.8778H19.7679L19.1875 21.7796C22.5357 24.8599 21.5982 24.0564 24.5 26.5564V6.06529ZM21.2411 16.9135C21.2411 16.9135 20.2589 18.5653 17.7143 18.6546C17.7143 18.6546 17.3125 18.1635 16.9554 17.7171C18.4732 17.3153 19.0536 16.3778 19.0536 16.3778C18.5625 16.6903 18.1161 16.8689 17.7143 17.0474C15.2589 18.0742 12.5357 17.7171 10.5714 16.6456C10.5714 16.601 10.3036 16.4671 10.125 16.3331C10.125 16.3331 10.6607 17.2706 12.1339 17.7171C11.7768 18.1189 11.375 18.6546 11.375 18.6546C8.83036 18.5653 7.89286 16.9135 7.89286 16.9135C7.89286 13.2081 9.5 10.2617 9.5 10.2617C11.1518 9.01172 12.7143 9.05636 12.7143 9.05636L12.8482 9.19029C10.7946 9.77065 9.85714 10.6635 9.85714 10.6635C9.85714 10.6635 10.0804 10.5296 10.5268 10.351C13.1607 9.19029 16.3304 9.19029 19.0536 10.6635C19.0536 10.6635 18.1607 9.81529 16.1964 9.23493L16.375 9.05636C16.375 9.05636 17.9375 9.01172 19.5893 10.2617C19.5893 10.2617 21.2411 13.2081 21.2411 16.9135Z" fill="#252525"/>
</g>
</svg>
