<svg width="29" height="28" viewBox="0 0 29 28" fill="none" xmlns="http://www.w3.org/2000/svg">
<g id="SN Icons 28-28">
<path id="Vector" fill-rule="evenodd" clip-rule="evenodd" d="M14.2205 11.4175V15.3769V25.017H9.91689L9.91602 15.3769L9.91689 11.4175V8.36197C9.91689 4.91906 11.9826 2.98242 15.1243 2.98242C16.6306 2.98242 18.2229 3.28368 18.2229 3.28368V6.68355H16.4584C14.737 6.68355 14.2205 7.71642 14.2205 8.83537V11.4175ZM15.948 16.32L17.004 17.112C17.132 17.176 17.268 17.2 17.412 17.184C17.572 17.168 17.684 17.104 17.748 16.992C17.748 16.976 17.756 16.96 17.772 16.944C17.804 16.928 17.828 16.888 17.844 16.824L18.852 14.64L19.86 16.824C19.892 16.888 19.916 16.928 19.932 16.944C19.948 16.96 19.956 16.976 19.956 16.992C20.036 17.104 20.148 17.168 20.292 17.184C20.436 17.2 20.572 17.176 20.7 17.112L21.756 16.32C21.884 16.24 21.956 16.128 21.972 15.984C21.988 15.824 21.956 15.696 21.876 15.6C21.876 15.584 21.828 15.528 21.732 15.432L19.98 13.848L22.356 13.584C22.404 13.568 22.436 13.56 22.452 13.56C22.484 13.544 22.508 13.536 22.524 13.536C22.652 13.504 22.748 13.424 22.812 13.296C22.892 13.152 22.916 13.008 22.884 12.864L22.452 11.616C22.42 11.488 22.332 11.392 22.188 11.328C22.06 11.264 21.932 11.248 21.804 11.28C21.788 11.28 21.724 11.304 21.612 11.352L19.524 12.528L20.004 10.2C20.02 10.136 20.028 10.096 20.028 10.08V10.008C20.028 9.88 19.972 9.76 19.86 9.648C19.764 9.536 19.644 9.48 19.5 9.48H18.18C18.036 9.48 17.908 9.536 17.796 9.648C17.7 9.76 17.652 9.88 17.652 10.008V10.08C17.652 10.096 17.66 10.136 17.676 10.2L18.156 12.528L16.092 11.352C15.98 11.304 15.916 11.28 15.9 11.28C15.788 11.248 15.66 11.264 15.516 11.328C15.372 11.392 15.284 11.488 15.252 11.616L14.82 12.864C14.788 13.008 14.804 13.152 14.868 13.296C14.948 13.424 15.044 13.504 15.156 13.536C15.172 13.536 15.188 13.544 15.204 13.56C15.236 13.56 15.284 13.568 15.348 13.584L17.7 13.848L15.972 15.432C15.876 15.528 15.828 15.584 15.828 15.6C15.764 15.696 15.74 15.824 15.756 15.984C15.772 16.128 15.836 16.24 15.948 16.32Z" fill="#252525"/>
</g>
</svg>
