<svg width="29" height="28" viewBox="0 0 29 28" fill="none" xmlns="http://www.w3.org/2000/svg">
<g id="SN Icons 28-28">
<path id="Instagram*" fill-rule="evenodd" clip-rule="evenodd" d="M10.9421 13.9769C10.9421 15.9832 12.5662 17.5595 14.5247 17.5595C16.4832 17.5595 18.0595 15.9832 18.0595 13.9769C18.0595 12.0184 16.4832 10.4421 14.5247 10.4421C12.5184 10.4421 10.9421 12.0184 10.9421 13.9769ZM23.4095 5.09208C24.6515 6.33404 25.0337 7.86261 25.1291 9.58227C25.2247 11.3497 25.2247 16.6519 25.1291 18.4194C25.0337 20.139 24.6515 21.6197 23.4095 22.9095C22.1676 24.1515 20.639 24.5337 18.9194 24.6291C17.1519 24.7247 11.8497 24.7247 10.0823 24.6291C8.36261 24.5337 6.88181 24.1515 5.59208 22.9095C4.35011 21.6197 3.96797 20.139 3.87243 18.4194C3.7769 16.6519 3.7769 11.3497 3.87243 9.58227C3.96797 7.86261 4.35011 6.33404 5.59208 5.09208C6.88181 3.85011 8.36261 3.46797 10.0823 3.37243C11.8497 3.2769 17.1519 3.2769 18.9194 3.37243C20.639 3.46797 22.1676 3.85011 23.4095 5.09208ZM17.7404 11.707L18.7494 12.4453C18.8806 12.5109 19.0202 12.5355 19.1678 12.5192C19.3319 12.5027 19.4467 12.4371 19.5124 12.3223C19.5124 12.2894 19.5205 12.2648 19.537 12.2485C19.5697 12.232 19.5943 12.1992 19.6108 12.15L20.669 9.86128L21.7273 12.15C21.76 12.1992 21.7846 12.232 21.8011 12.2485C21.8175 12.2648 21.8257 12.2894 21.8257 12.3223C21.9077 12.4371 22.0226 12.5027 22.1702 12.5192C22.3179 12.5355 22.4573 12.5109 22.5886 12.4453L23.573 11.707C23.7042 11.625 23.778 11.5102 23.7945 11.3625C23.8109 11.1984 23.778 11.0672 23.6961 10.9687C23.6961 10.9523 23.6468 10.8949 23.5484 10.7965L21.7273 9.12294L24.2129 8.82762C24.2785 8.81121 24.3194 8.80301 24.3359 8.80301C24.3687 8.7866 24.3933 8.7784 24.4098 8.7784C24.5409 8.74559 24.6394 8.66355 24.7051 8.5323C24.7707 8.38464 24.787 8.23698 24.7543 8.08931L24.3605 6.90803C24.3277 6.77679 24.2375 6.67835 24.0898 6.61271C23.9585 6.54709 23.8272 6.53069 23.6961 6.56349C23.6796 6.56349 23.614 6.59631 23.4992 6.66193L21.3089 7.89243L21.8011 5.43143C21.8175 5.36581 21.8257 5.3248 21.8257 5.30838V5.23455C21.8257 5.10331 21.7682 4.98026 21.6534 4.8654C21.555 4.75056 21.4319 4.69313 21.2843 4.69313H20.0538C19.9061 4.69313 19.7748 4.75056 19.66 4.8654C19.5616 4.98026 19.5124 5.10331 19.5124 5.23455V5.30838C19.5124 5.3248 19.5205 5.36581 19.537 5.43143L20.0046 7.86783L17.8389 6.66193C17.724 6.59631 17.6584 6.56349 17.642 6.56349C17.5271 6.53069 17.3959 6.54709 17.2482 6.61271C17.1006 6.67835 17.0103 6.77679 16.9775 6.90803L16.5838 8.08931C16.5509 8.23698 16.5673 8.38464 16.633 8.5323C16.7149 8.66355 16.8134 8.74559 16.9283 8.7784C16.9447 8.7784 16.961 8.7866 16.9775 8.80301C17.0103 8.80301 17.0595 8.81121 17.1252 8.82762L19.5862 9.09833L17.765 10.7965C17.6666 10.8949 17.6174 10.9523 17.6174 10.9687C17.5517 11.0672 17.5271 11.1984 17.5436 11.3625C17.5599 11.5102 17.6255 11.625 17.7404 11.707Z" fill="#252525"/>
</g>
</svg>
