<svg width="29" height="28" viewBox="0 0 29 28" fill="none" xmlns="http://www.w3.org/2000/svg">
<g id="SN Icons 28-28">
<path id="icon" d="M19.9372 17.7723C21.4493 16.78 22.1581 16.213 21.5438 14.9844C21.213 14.3229 20.2207 13.7559 18.9922 14.7482C18.9922 14.7482 17.2439 16.1185 14.5033 16.1185C11.7154 16.1185 10.0144 14.7482 10.0144 14.7482C8.73859 13.7086 7.79356 14.3229 7.41554 14.9844C6.84852 16.213 7.51005 16.78 9.0221 17.7723C10.3451 18.6228 12.1407 18.9536 13.322 19.0481L12.3297 20.0404C10.9594 21.4107 9.68362 22.7337 8.73859 23.6315C7.41554 24.9545 9.54187 27.0809 10.9122 25.8051L14.5033 22.1667C15.8736 23.5842 17.1966 24.9073 18.0944 25.8051C19.4175 27.1281 21.591 25.0018 20.268 23.6315L16.6769 20.0404L15.6846 19.0481C16.8659 18.9536 18.6142 18.6228 19.9372 17.7723ZM8.36058 8.13295C8.36058 11.5351 11.1012 14.2757 14.5033 14.2757C17.8582 14.2757 20.5988 11.5351 20.5988 8.13295C20.5988 4.73083 17.8582 1.99023 14.5033 1.99023C11.1012 1.99023 8.36058 4.73083 8.36058 8.13295ZM11.4792 8.13295C11.4792 6.47914 12.8022 5.10884 14.5033 5.10884C16.1571 5.10884 17.4801 6.47914 17.4801 8.13295C17.4801 9.78675 16.1571 11.1571 14.5033 11.1571C12.8022 11.1571 11.4792 9.78675 11.4792 8.13295Z" fill="#252525"/>
</g>
</svg>
