<svg width="13" height="12" viewBox="0 0 13 12" fill="none" xmlns="http://www.w3.org/2000/svg">
<g id="Arrows" clip-path="url(#clip0_157_24033)">
<path id="Vector" d="M3.94941 11.4811C4.01714 11.549 4.0976 11.6029 4.18619 11.6396C4.27478 11.6764 4.36975 11.6953 4.46566 11.6953C4.56157 11.6953 4.65654 11.6764 4.74512 11.6396C4.83371 11.6029 4.91417 11.549 4.98191 11.4811L9.82941 6.63359C9.88349 6.57963 9.92639 6.51552 9.95566 6.44496C9.98493 6.37439 10 6.29874 10 6.22234C10 6.14594 9.98493 6.0703 9.95566 5.99973C9.92639 5.92916 9.88349 5.86506 9.82941 5.81109L4.98191 0.96359C4.69607 0.677757 4.23524 0.677757 3.94941 0.96359C3.66357 1.24942 3.66357 1.71026 3.94941 1.99609L8.17274 6.22526L3.94357 10.4544C3.66357 10.7344 3.66357 11.2011 3.94941 11.4811Z" fill="#252525"/>
</g>
<defs>
<clipPath id="clip0_157_24033">
<rect width="12" height="12" fill="white" transform="translate(0.5 12) rotate(-90)"/>
</clipPath>
</defs>
</svg>
