<svg width="22" height="36" viewBox="0 0 22 36" fill="none" xmlns="http://www.w3.org/2000/svg">
<g id="Parental Service icons">
<path id="icon" d="M16.3957 22.2301L16.3887 22.2231L16.3804 22.2176L16.3777 22.2158C16.3171 22.1754 16.2503 22.1308 16.1822 22.0968C16.1129 22.0621 16.0343 22.0341 15.95 22.0341H15.6229C16.8496 20.5372 17.6333 18.5812 17.6333 16.4674C17.6333 11.6622 13.6718 7.70078 8.86662 7.70078C4.01941 7.70078 0.0999512 11.6625 0.0999512 16.4674C0.0999512 21.3143 4.01972 25.2341 8.86662 25.2341C10.9821 25.2341 12.901 24.4879 14.4333 23.2619V23.5924C14.4333 23.7409 14.483 23.8849 14.5751 24.0229L14.5806 24.0312L14.5876 24.0382L19.6292 29.0798C19.8703 29.3209 20.2711 29.3347 20.4827 29.0761L21.4336 28.1252C21.6922 27.9136 21.6784 27.5128 21.4373 27.2717L16.3957 22.2301ZM8.86662 23.0341C5.21351 23.0341 2.29995 20.1206 2.29995 16.4674C2.29995 12.8556 5.21392 9.90078 8.86662 9.90078C12.4781 9.90078 15.4333 12.856 15.4333 16.4674C15.4333 20.1201 12.4785 23.0341 8.86662 23.0341Z" fill="#252525" stroke="#252525" stroke-width="0.2"/>
</g>
</svg>
