<svg width="29" height="28" viewBox="0 0 29 28" fill="none" xmlns="http://www.w3.org/2000/svg">
<g id="Icons">
<path id="icon" d="M20.3333 13.9997C22.2655 13.9997 23.8333 12.432 23.8333 10.4997C23.8333 8.56738 22.2655 6.99967 20.3333 6.99967C18.401 6.99967 16.8333 8.56738 16.8333 10.4997C16.8333 12.432 18.401 13.9997 20.3333 13.9997ZM20.3333 8.74967C21.2812 8.74967 22.0833 9.55176 22.0833 10.4997C22.0833 11.484 21.2812 12.2497 20.3333 12.2497C19.3489 12.2497 18.5833 11.484 18.5833 10.4997C18.5833 9.55176 19.3489 8.74967 20.3333 8.74967ZM12.7499 14.7288C12.3124 14.7288 11.8749 14.8018 11.4374 14.9476C10.927 15.0934 10.3801 15.1663 9.79679 15.1663C9.24992 15.1663 8.70304 15.0934 8.19263 14.9476C7.75513 14.8018 7.31763 14.7288 6.88013 14.7288C5.56763 14.7288 4.29159 15.3486 3.52596 16.4424C3.08846 17.1351 2.83325 17.9372 2.83325 18.8122V20.4163C2.83325 21.4007 3.59888 22.1663 4.58325 22.1663H15.0833C16.0312 22.1663 16.8333 21.4007 16.8333 20.4163V18.8122C16.8333 17.9372 16.5416 17.1351 16.1041 16.4424C15.3385 15.3486 14.0624 14.7288 12.7499 14.7288ZM15.0833 20.4163H4.58325V18.8122C4.58325 17.7549 5.2395 16.8434 6.18742 16.5153C6.552 16.3695 6.95304 16.3695 7.35409 16.5153C8.15617 16.7705 8.99471 16.9163 9.83325 16.9163C10.6718 16.9163 11.4739 16.7705 12.3124 16.5153C12.677 16.3695 13.078 16.3695 13.4791 16.5153C14.3905 16.8434 15.0833 17.7549 15.0833 18.8122V20.4163ZM9.83325 13.9997C12.0572 13.9997 13.9166 12.1768 13.9166 9.91634C13.9166 7.69238 12.0572 5.83301 9.83325 5.83301C7.57283 5.83301 5.74992 7.69238 5.74992 9.91634C5.74992 12.1768 7.57283 13.9997 9.83325 13.9997ZM9.83325 7.58301C11.1093 7.58301 12.1666 8.6403 12.1666 9.91634C12.1666 11.2288 11.1093 12.2497 9.83325 12.2497C8.52075 12.2497 7.49992 11.2288 7.49992 9.91634C7.49992 8.6403 8.52075 7.58301 9.83325 7.58301ZM25.5468 16.2601C24.927 15.3122 23.8697 14.8018 22.7395 14.8018C21.7551 14.8018 21.4999 15.1663 20.3333 15.1663C19.1666 15.1663 18.9114 14.8018 17.8905 14.8018C17.3801 14.8018 16.9426 14.9111 16.5051 15.1299C16.6874 15.3122 16.9062 15.5674 17.0885 15.7861C17.2343 16.0413 17.3801 16.333 17.526 16.5882C17.6353 16.5882 17.7447 16.5518 17.8905 16.5518C18.5103 16.5518 18.9478 16.9163 20.3333 16.9163C21.6822 16.9163 22.1197 16.5518 22.7395 16.5518C23.3228 16.5518 23.8333 16.807 24.0885 17.208C24.3072 17.4997 24.4166 17.8278 24.4166 18.1924V19.2497H17.9999V20.4163C17.9999 20.6351 17.9635 20.8174 17.927 20.9997H24.7083C25.5103 20.9997 26.1666 20.3799 26.1666 19.5413V18.1924C26.1666 17.4632 25.9478 16.807 25.5468 16.2601Z" fill="#252525" stroke="#252525" stroke-width="0.16"/>
</g>
</svg>
