<svg width="29" height="28" viewBox="0 0 29 28" fill="none" xmlns="http://www.w3.org/2000/svg">
<g id="SN Icons 28-28">
<path id="icon" d="M23.9639 12.0561V8.38032C23.9217 8.38032 23.9217 8.38032 23.9217 8.38032C22.9077 8.38032 21.9359 8.08457 21.1332 7.53533C19.9502 6.77483 19.1052 5.54958 18.8517 4.15534C18.7672 3.85959 18.7672 3.56384 18.7672 3.26809C18.7672 3.22584 18.7672 3.22584 18.7672 3.18359H15.0492V17.971C15.0492 19.7033 13.6127 21.1398 11.8805 21.1398C10.1482 21.1398 8.71175 19.7033 8.71175 17.971C8.71175 16.2388 10.1482 14.8023 11.8805 14.8023C12.2185 14.8023 12.5142 14.8445 12.8522 14.9713V11.1688C12.5142 11.1266 12.2185 11.0843 11.8805 11.0843C8.078 11.0843 5.03601 14.1685 5.03601 17.971C5.03601 21.7735 8.078 24.8155 11.8805 24.8155C15.683 24.8155 18.7672 21.7735 18.7672 17.971V10.4083C20.2037 11.4646 21.9782 12.0561 23.9217 12.0561H23.9639Z" fill="#252525"/>
</g>
</svg>
