<svg width="29" height="28" viewBox="0 0 29 28" fill="none" xmlns="http://www.w3.org/2000/svg">
<g id="Icons">
<g id="icon">
<path d="M21.8647 7.03608C19.7501 5.24963 16.5053 5.50483 14.5001 7.58296C12.4584 5.50483 9.21365 5.24963 7.09907 7.03608C4.36469 9.33296 4.76573 13.0882 6.73448 15.0934L13.1147 21.6194C13.4793 21.984 13.9532 22.2028 14.5001 22.2028C15.0105 22.2028 15.4845 21.984 15.8491 21.6194L22.2657 15.0934C24.198 13.0882 24.5991 9.33296 21.8647 7.03608ZM20.9897 13.8538L14.6095 20.3798C14.5366 20.4528 14.4636 20.4528 14.3543 20.3798L7.97407 13.8538C6.62511 12.5048 6.3699 9.95275 8.22927 8.38504C9.65115 7.18192 11.8386 7.36421 13.2241 8.74963L14.5001 10.0621L15.7761 8.74963C17.1251 7.36421 19.3126 7.18192 20.7345 8.34858C22.5939 9.95275 22.3386 12.5048 20.9897 13.8538Z" fill="#252525"/>
<path d="M13.0611 21.6719L13.0617 21.6725C13.4392 22.05 13.9318 22.2778 14.5001 22.2778C15.0327 22.2778 15.5252 22.0494 15.9021 21.6725L15.9025 21.672L22.3192 15.146L22.3197 15.1454C24.2767 13.1146 24.6863 9.30838 21.913 6.97872C19.7845 5.18055 16.5338 5.42239 14.4996 7.47616C12.4304 5.42276 9.17966 5.18024 7.05075 6.97872C4.27737 9.30843 4.687 13.115 6.68097 15.1459L13.0611 21.6719Z" stroke="#252525" stroke-width="0.15"/>
</g>
</g>
</svg>
