<svg width="29" height="28" viewBox="0 0 29 28" fill="none" xmlns="http://www.w3.org/2000/svg">
<g id="Icons">
<path id="icon" d="M6.5 21.912C6.5 20.3207 7.13214 18.7946 8.25736 17.6694C9.38258 16.5441 10.9087 15.912 12.5 15.912C14.0913 15.912 15.6174 16.5441 16.7426 17.6694C17.8679 18.7946 18.5 20.3207 18.5 21.912H17C17 20.7185 16.5259 19.5739 15.682 18.73C14.8381 17.8861 13.6935 17.412 12.5 17.412C11.3065 17.412 10.1619 17.8861 9.31802 18.73C8.47411 19.5739 8 20.7185 8 21.912H6.5ZM12.5 15.162C10.0138 15.162 8 13.1483 8 10.662C8 8.17575 10.0138 6.162 12.5 6.162C14.9862 6.162 17 8.17575 17 10.662C17 13.1483 14.9862 15.162 12.5 15.162ZM12.5 13.662C14.1575 13.662 15.5 12.3195 15.5 10.662C15.5 9.0045 14.1575 7.662 12.5 7.662C10.8425 7.662 9.5 9.0045 9.5 10.662C9.5 12.3195 10.8425 13.662 12.5 13.662ZM21.911 6C22.6297 7.44887 23.0024 9.04469 23 10.662C23 12.3368 22.6077 13.92 21.911 15.324L20.6772 14.427C21.2212 13.2465 21.5019 11.9618 21.5 10.662C21.5018 9.36221 21.221 8.07757 20.6772 6.897L21.911 6ZM19.4345 7.8C19.8091 8.70762 20.0012 9.68012 20 10.662C20.0012 11.6439 19.8091 12.6164 19.4345 13.524L18.1768 12.609C18.3914 11.9823 18.5006 11.3244 18.5 10.662C18.5008 9.99964 18.3919 9.34172 18.1775 8.715L19.4345 7.8Z" fill="#252525" stroke="#252525" stroke-width="0.4"/>
</g>
</svg>
