<svg width="29" height="28" viewBox="0 0 29 28" fill="none" xmlns="http://www.w3.org/2000/svg">
<g id="SN Icons 28-28">
<path id="Vector" fill-rule="evenodd" clip-rule="evenodd" d="M5.94434 12.7882C5.94434 8.05747 9.77915 4.22266 14.5099 4.22266C19.2407 4.22266 23.0755 8.05747 23.0755 12.7882C23.0755 15.1528 22.1174 17.2937 20.5679 18.8437C20.1635 19.2484 19.6159 19.7003 19.0236 20.1891C17.3463 21.5733 15.3106 23.2534 15.1523 24.9942C15.1202 25.3474 14.8645 25.6366 14.5099 25.6366C14.1553 25.6366 13.8996 25.3474 13.8675 24.9942C13.7092 23.2534 11.6736 21.5733 9.99623 20.1891C9.40396 19.7003 8.85638 19.2484 8.45191 18.8437C6.9024 17.2937 5.94434 15.1528 5.94434 12.7882ZM17.5078 12.7884C17.5078 14.4442 16.1656 15.7864 14.5099 15.7864C12.8542 15.7864 11.512 14.4442 11.512 12.7884C11.512 11.1327 12.8542 9.79049 14.5099 9.79049C16.1656 9.79049 17.5078 11.1327 17.5078 12.7884Z" fill="#252525"/>
</g>
</svg>
