<svg width="29" height="28" viewBox="0 0 29 28" fill="none" xmlns="http://www.w3.org/2000/svg">
<g id="SN Icons 28-28">
<path id="icon" d="M25.4117 8.54167C25.1617 7.54167 24.37 6.75 23.4117 6.5C21.62 6 14.5367 6 14.5367 6C14.5367 6 7.41166 6 5.62 6.5C4.66166 6.75 3.87 7.54167 3.62 8.54167C3.12 10.2917 3.12 14.0417 3.12 14.0417C3.12 14.0417 3.12 17.75 3.62 19.5417C3.87 20.5417 4.66166 21.2917 5.62 21.5417C7.41166 22 14.5367 22 14.5367 22C14.5367 22 21.62 22 23.4117 21.5417C24.37 21.2917 25.1617 20.5417 25.4117 19.5417C25.9117 17.75 25.9117 14.0417 25.9117 14.0417C25.9117 14.0417 25.9117 10.2917 25.4117 8.54167ZM12.2033 17.4167V10.6667L18.12 14.0417L12.2033 17.4167Z" fill="#252525"/>
</g>
</svg>
