<svg width="26" height="25" viewBox="0 0 26 25" fill="none" xmlns="http://www.w3.org/2000/svg">
<path id="icon" d="M8.91701 17.7434L8.53162 15.6062H22.1746C22.7122 15.6062 23.1162 15.2792 23.2505 14.7674L23.2505 14.7674L23.2508 14.7661L25.2228 5.28834L25.2229 5.28796C25.3569 4.59157 24.8659 3.89125 24.1466 3.89125H6.33111L5.94076 1.90702C5.94075 1.90693 5.94073 1.90684 5.94071 1.90675C5.85119 1.3955 5.40408 0.975 4.9082 0.975H1.5C1.17565 0.975 0.975 1.2637 0.975 1.5468L0.975 2.64039C0.975 2.80484 1.02485 2.94785 1.11633 3.05007C1.20807 3.15258 1.34004 3.21219 1.5 3.21219H4.01097L7.02874 19.4015C6.54772 19.9514 6.28554 20.6374 6.28554 21.4138C6.28554 23.067 7.52288 24.355 9.11523 24.355C10.6635 24.355 11.9449 23.0673 11.9449 21.4138C11.9449 20.9202 11.7769 20.4281 11.5651 19.9806H17.8403C17.6301 20.4295 17.5043 20.9213 17.5043 21.4138C17.5043 23.067 18.7416 24.355 20.334 24.355C21.8823 24.355 23.1637 23.0673 23.1637 21.4138C23.1637 20.5911 22.8141 19.8599 22.2897 19.3103L22.3303 19.1413L22.3304 19.1413L22.3306 19.1402C22.4645 18.4438 21.9736 17.7434 21.2543 17.7434H8.91701ZM9.11523 22.4823C8.51642 22.4823 8.08847 22.0388 8.08847 21.4138C8.08847 20.8336 8.51709 20.3452 9.11523 20.3452C9.67022 20.3452 10.142 20.8343 10.142 21.4138C10.142 22.0381 9.67089 22.4823 9.11523 22.4823ZM20.334 22.4823C19.7352 22.4823 19.3072 22.0388 19.3072 21.4138C19.3072 20.8336 19.7358 20.3452 20.334 20.3452C20.889 20.3452 21.3607 20.8343 21.3607 21.4138C21.3607 22.0381 20.8896 22.4823 20.334 22.4823ZM22.8449 6.12844L21.3216 13.3691H8.08425L6.73504 6.12844H22.8449Z" fill="#252525" stroke="#252525" stroke-width="0.05"/>
</svg>
