<svg width="22" height="24" viewBox="0 0 22 24" fill="none" xmlns="http://www.w3.org/2000/svg">
<g id="Group 632927">
<path id="icon" d="M0.502537 19.1962L0.502152 19.1964L0.504708 19.2015C0.656325 19.5047 0.960736 19.734 1.34257 19.734C3.27709 19.734 4.84708 18.9708 5.90713 18.3147C6.06766 18.3497 6.23623 18.3763 6.40342 18.4027L6.40404 18.4028C6.57129 18.4292 6.73715 18.4554 6.89464 18.4897C8.07443 20.5747 10.7457 22.0309 13.9207 22.0309C14.647 22.0309 15.3734 21.9588 16.0643 21.8146C17.125 22.4709 18.6951 23.1976 20.6655 23.1976C21.0097 23.1976 21.3155 23.0057 21.4677 22.6634L21.4677 22.6634L21.4686 22.6612C21.5824 22.3575 21.5453 21.9756 21.2771 21.7074L21.2761 21.7062L21.2694 21.6988L21.2433 21.6695C21.2205 21.6436 21.1872 21.6054 21.1455 21.5561C21.0622 21.4574 20.9453 21.3144 20.8113 21.1373C20.5475 20.7886 20.2182 20.3084 19.9485 19.7747C20.927 18.7877 21.544 17.546 21.544 16.1576C21.544 13.2181 18.7231 10.8053 15.0762 10.3962C13.9317 8.2756 11.2249 6.78422 8.08736 6.78422C5.98291 6.78422 4.07831 7.44296 2.69901 8.50608C1.31969 9.56921 0.464026 11.0384 0.464026 12.6576C0.464026 14.0096 1.04488 15.2511 2.05894 16.2742C1.77161 16.808 1.43329 17.2884 1.16488 17.6418C1.02854 17.8213 0.910369 17.9679 0.826115 18.0721L0.814463 18.0865C0.777808 18.1318 0.747995 18.1687 0.726851 18.1958C0.715226 18.2106 0.705748 18.2232 0.699055 18.2328C0.69576 18.2376 0.692618 18.2424 0.690145 18.2468C0.689633 18.2477 0.689077 18.2488 0.688511 18.2499C0.462266 18.4814 0.390058 18.8588 0.502537 19.1962ZM5.58144 16.3375L5.56459 16.3333L5.55 16.3427L4.93021 16.7438L4.93019 16.7437L4.92869 16.7448C4.45076 17.0862 3.94018 17.3312 3.45751 17.5102C3.52664 17.3592 3.61764 17.2074 3.7102 17.0531L3.71034 17.0532L3.71191 17.05L4.25878 15.9198L4.27117 15.8942L4.25106 15.8741L3.3396 14.9626C2.86911 14.4921 2.29403 13.6996 2.29403 12.6576C2.29403 11.5809 2.94919 10.5709 4.00426 9.82828C5.05888 9.08598 6.50904 8.61422 8.08736 8.61422C9.64738 8.61422 11.0976 9.08594 12.1568 9.82833C13.2166 10.5711 13.8807 11.5811 13.8807 12.6576C13.8807 13.7523 13.2165 14.7623 12.1569 15.5004C11.0978 16.2382 9.64755 16.7009 8.08736 16.7009C7.469 16.7009 6.88937 16.6645 6.3106 16.5198L5.58144 16.3375ZM17.7205 19.3741L17.6999 19.3947L17.7133 19.4207L18.2957 20.5492C18.3572 20.7023 18.4435 20.8549 18.533 21.0055C18.0296 20.8237 17.5548 20.5504 17.0777 20.2437L17.077 20.2432L16.4207 19.8422L16.4062 19.8333L16.3897 19.8376L15.6974 20.0198C15.6974 20.0198 15.6973 20.0198 15.6972 20.0198C15.1186 20.1645 14.5026 20.2009 13.9207 20.2009C11.9976 20.2009 10.2518 19.5018 9.19624 18.4848C12.8853 18.0551 15.7107 15.6167 15.7107 12.6576C15.7107 12.6036 15.7024 12.5498 15.6941 12.4961C15.6934 12.4917 15.6927 12.4873 15.692 12.4829C15.6852 12.4387 15.6786 12.3932 15.6757 12.344C16.816 12.6191 17.8204 13.1306 18.5422 13.7899C19.2745 14.4591 19.714 15.2785 19.714 16.1576C19.714 17.1988 19.1034 17.9912 18.632 18.4626L17.7205 19.3741Z" fill="#252525" stroke="#252525" stroke-width="0.08"/>
<path id="icon_2" d="M15.9426 9.16496L15.9423 9.16463L12.6518 5.67387L15.9426 9.16496ZM15.9426 9.16496C16.1374 9.36699 16.392 9.48922 16.686 9.48922C16.9616 9.48922 17.216 9.36666 17.4105 9.16496L17.4107 9.16471M15.9426 9.16496L17.4107 9.16471M17.4107 9.16471L20.7201 5.67389L20.7204 5.6736M17.4107 9.16471L20.7204 5.6736M20.7204 5.6736C21.7295 4.58749 21.9408 2.55236 20.5105 1.30632C19.4123 0.344168 17.7353 0.473372 16.6857 1.57099M20.7204 5.6736L16.6857 1.57099M16.6857 1.57099C15.618 0.473574 13.941 0.343994 12.8426 1.30632C11.4123 2.55237 11.6235 4.58761 12.6517 5.67381L16.6857 1.57099Z" fill="#252525" stroke="#252525" stroke-width="0.08"/>
</g>
</svg>
