<svg width="120" height="120" viewBox="0 0 120 120" fill="none" xmlns="http://www.w3.org/2000/svg">
<g id="&#208;&#158;&#208;&#179;&#208;&#190;&#208;&#189;&#209;&#140;" clip-path="url(#clip0_88_13305)">
<path id="Vector" d="M40.586 121.227C23.2149 110.107 20.7785 99.3384 20.7785 85.7825C20.7785 65.2831 56.1056 28.7963 56.1056 11.6541C56.1382 8.12185 55.6305 4.60534 54.5999 1.22656C65.6463 9.27626 80.664 23.4704 80.664 44.3207C81.095 51.2984 79.7803 58.2735 76.8389 64.6155C79.9286 64.3414 82.8637 63.142 85.2612 61.174C87.6587 59.206 89.407 56.5607 90.2778 53.5837C99.8332 63.4266 102.094 72.1146 102.094 85.7825C101.413 92.9343 99.1203 99.8387 95.3885 105.977C91.6566 112.116 86.5825 117.33 80.5471 121.227C83.1873 118.709 85.2724 115.667 86.6687 112.296C88.0649 108.926 88.7416 105.3 88.6552 101.653C88.6552 93.6617 82.1697 94.9335 78.8124 94.9335C76.879 94.8586 74.982 94.3857 73.2397 93.5444C71.4974 92.703 69.9474 91.5114 68.6866 90.0438C67.4258 88.5763 66.4812 86.8645 65.912 85.0153C65.3428 83.1662 65.1611 81.2195 65.3783 79.297C65.3783 65.4 69.3155 59.8403 63.6388 48.9498C57.6161 66.2089 36.5368 79.7599 36.5368 102.925C36.3387 109.268 37.7307 115.559 40.586 121.227Z" fill="url(#paint0_linear_88_13305)"/>
</g>
<defs>
<linearGradient id="paint0_linear_88_13305" x1="61.4363" y1="1.22656" x2="61.4363" y2="121.227" gradientUnits="userSpaceOnUse">
<stop stop-color="#FFC300"/>
<stop offset="1" stop-color="#FF7A00"/>
</linearGradient>
<clipPath id="clip0_88_13305">
<rect width="120" height="120" fill="white"/>
</clipPath>
</defs>
</svg>
