<svg width="29" height="28" viewBox="0 0 29 28" fill="none" xmlns="http://www.w3.org/2000/svg">
<g id="SN Icons 28-28">
<path id="Vector" fill-rule="evenodd" clip-rule="evenodd" d="M7.46867 17.0152L6.03228 15.5668L6.06995 15.6045L8.88278 12.7711C8.88278 12.7711 8.87466 12.7609 8.85764 12.7428L8.88321 12.7676L11.7068 9.92112L14.5434 7.06091V7.05984L14.5338 7.06931L14.5326 7.06814C14.8616 6.74676 15.1242 6.49379 15.3001 6.32995C15.9045 5.8444 16.5208 5.50542 17.2157 5.27627C17.6241 5.14163 17.9679 5.06574 18.4248 5.00943C18.7072 4.97463 19.409 4.97021 19.681 5.00151C20.1414 5.0545 20.5812 5.15121 20.9842 5.28813L21.0199 5.30048L8.38318 17.9372L7.46867 17.0152ZM8.86712 18.4251L8.38318 17.9372L9.08562 18.6478C9.48142 19.0467 9.88218 19.4498 10.2829 19.8529C10.7583 20.3311 11.2404 20.8039 11.7076 21.2749C13.0902 22.6673 14.2291 23.8167 14.2498 23.8274C14.2714 23.8384 14.3172 23.8569 14.3518 23.8684C14.3875 23.8803 14.4592 23.8869 14.5181 23.8838C14.5314 23.883 14.5427 23.8837 14.5531 23.8844C14.5585 23.8847 14.564 23.885 14.5693 23.8851C14.7004 23.8875 14.834 23.7527 18.2777 20.2784L19.1275 19.421C21.5031 17.0247 23.5097 14.9892 23.5865 14.8977C23.9417 14.475 24.2353 14.0194 24.4545 13.5511C25.11 12.1498 25.2066 10.5747 24.7389 9.11257L24.556 8.61503L24.5502 8.60124C24.5054 8.49459 24.4641 8.40732 24.4585 8.40732C24.4585 8.40732 24.4917 8.37069 24.4557 8.40671L24.3873 8.25753C23.8453 7.1681 22.9334 6.23498 21.8546 5.66575L21.6505 5.55816C21.6249 5.54202 21.5354 5.50238 21.4251 5.45688L21.0199 5.30048C21.1366 5.34153 21.2952 5.40328 21.4251 5.45688L21.6516 5.55885L8.86712 18.4251ZM21.6505 5.55816L21.9843 5.73637L9.08562 18.6478L8.86588 18.4264L8.86712 18.4251L8.87008 18.4281C11.0505 16.2238 12.6992 14.5547 14.3952 12.8826C16.8508 10.3555 18.9273 8.32283 21.6505 5.55816ZM24.1425 8.72286C24.2623 8.60264 24.4033 8.45887 24.4557 8.40671L24.556 8.61503C24.6243 8.77912 24.6853 8.9451 24.7389 9.11257L12.1392 21.7097L11.7093 21.2766L13.6356 19.3287L24.1425 8.72286ZM24.1425 8.72286C23.5459 9.32131 22.1675 10.7082 20.5488 12.338L13.6356 19.3287L11.7076 21.2749L11.444 21.0104L24.3227 8.13167L24.4585 8.40732L24.1425 8.72286ZM14.5196 7.08094C14.5239 7.07666 14.5283 7.0724 14.5326 7.06814L14.5335 7.0669L14.1091 6.65315L13.8061 6.38124C13.6991 6.29118 13.5934 6.2092 13.4797 6.12706C12.6399 5.52062 11.722 5.16714 10.6474 5.03639C10.4916 5.01743 10.2525 5.00788 10.0129 5.00779C9.77341 5.00769 9.53334 5.01707 9.37563 5.03591C8.91078 5.09143 8.47509 5.18889 8.06072 5.33159L7.62412 5.50211C7.55557 5.53218 7.48755 5.5636 7.42004 5.59641L7.41883 5.5952L7.27651 5.66728C6.70718 5.95555 6.0652 6.44406 5.63903 6.91331C5.24405 7.34822 4.99603 7.69727 4.7233 8.20214L4.59401 8.4462L4.595 8.44831L4.50262 8.66658L4.48026 8.72014L4.32862 9.12955C4.20258 9.51143 4.11336 9.90871 4.05985 10.3256C4.02434 10.6021 4.01928 11.433 4.05151 11.6949C4.2002 12.9031 4.61809 13.9086 5.35653 14.8299L5.6345 15.1385L5.8707 15.4008L5.89877 15.4296L6.03228 15.5668C6.02731 15.5718 6.03722 15.5618 6.03228 15.5668L6.04821 15.5523L8.85764 12.7428C8.85488 12.7399 8.85188 12.7367 8.84866 12.7333L8.85764 12.7428L10.2754 11.3251L11.6931 9.90732L11.7068 9.92112L11.7084 9.91949L11.6948 9.90571L14.5196 7.08094ZM11.6827 9.89351C12.7985 8.77897 13.8107 7.77351 14.5196 7.08094L14.5326 7.06814L14.2667 6.80582C14.0953 6.63671 13.9494 6.50175 13.8061 6.38124L11.4583 8.72914L8.06072 5.33159C7.91258 5.38259 7.76716 5.43939 7.62412 5.50211L7.41883 5.5952L7.42004 5.59641L7.0912 5.76666L10.7517 9.43565L8.15757 12.0298L8.15533 12.0276L8.39751 11.7854L4.75115 8.15097L4.595 8.44831L4.48026 8.72014C4.42483 8.85471 4.37431 8.99112 4.32862 9.12955L7.691 12.4919L8.152 12.0309L8.15424 12.0332L5.35653 14.8299L5.6345 15.1385L6.03228 15.5668C6.82293 14.7703 7.81947 13.7672 8.84866 12.7333C9.78906 11.7887 10.7697 10.8054 11.681 9.89514L11.6931 9.90732L11.6948 9.90571L11.6827 9.89351Z" fill="#252525"/>
</g>
</svg>
