<svg width="29" height="44" viewBox="0 0 29 44" fill="none" xmlns="http://www.w3.org/2000/svg">
<g id="Parental Service icons">
<path id="icon" d="M23.2716 23.6167C22.7318 23.6167 22.3217 23.7482 21.8711 23.8927C21.8095 23.9124 21.7472 23.9324 21.6838 23.9523C21.1555 24.118 20.5357 24.2833 19.5633 24.2833C18.5699 24.2833 17.9397 24.118 17.4063 23.9523C17.3395 23.9315 17.274 23.9107 17.2094 23.8901C16.7584 23.7466 16.35 23.6167 15.8133 23.6167C12.7019 23.6167 10.18 26.1812 10.18 29.2917V30.3333C10.18 31.4859 11.0774 32.3833 12.23 32.3833H26.8966C28.0069 32.3833 28.9466 31.4866 28.9466 30.3333V29.2917C28.9466 26.1807 26.3826 23.6167 23.2716 23.6167ZM12.28 30.2833V29.2917C12.28 27.3185 13.8417 25.7167 15.8133 25.7167C15.9617 25.7167 16.1328 25.7564 16.3441 25.8188C16.4262 25.8431 16.5153 25.871 16.611 25.9011C16.7574 25.947 16.9194 25.9979 17.0966 26.0481C17.6885 26.2157 18.4744 26.3833 19.5633 26.3833C20.6315 26.3833 21.407 26.2157 21.9937 26.0481C22.1665 25.9987 22.3255 25.9485 22.4695 25.9031C22.5672 25.8722 22.6581 25.8435 22.7416 25.8188C22.9522 25.7564 23.1232 25.7167 23.2716 25.7167C25.244 25.7167 26.8466 27.3193 26.8466 29.2917V30.2833H12.28ZM19.5633 23.05C22.8824 23.05 25.6133 20.3612 25.6133 17C25.6133 13.6807 22.8826 10.95 19.5633 10.95C16.2021 10.95 13.5133 13.6809 13.5133 17C13.5133 20.3609 16.2024 23.05 19.5633 23.05ZM19.5633 13.05C21.7024 13.05 23.5133 14.8609 23.5133 17C23.5133 19.1804 21.7027 20.95 19.5633 20.95C17.3826 20.95 15.6133 19.1807 15.6133 17C15.6133 14.8606 17.3829 13.05 19.5633 13.05Z" fill="#252525" stroke="#252525" stroke-width="0.1"/>
</g>
</svg>
