<svg width="21" height="21" viewBox="0 0 21 21" fill="none" xmlns="http://www.w3.org/2000/svg">
<g id="Arrows">
<circle id="Ellipse 34" cx="10.5" cy="10.5" r="10" fill="#F0F1F2"/>
<path id="icon" d="M11.8196 10.4862L14.8196 7.514C14.9862 7.34733 14.9862 7.04178 14.8196 6.87511L14.1251 6.18066C13.9584 6.014 13.6529 6.014 13.4862 6.18066L10.514 9.18066L7.514 6.18066C7.34733 6.014 7.04178 6.014 6.87511 6.18066L6.18066 6.87511C6.014 7.04178 6.014 7.34733 6.18066 7.514L9.18066 10.4862L6.18066 13.4862C6.014 13.6529 6.014 13.9584 6.18066 14.1251L6.87511 14.8196C7.04178 14.9862 7.34733 14.9862 7.514 14.8196L10.514 11.8196L13.4862 14.8196C13.6529 14.9862 13.9584 14.9862 14.1251 14.8196L14.8196 14.1251C14.9862 13.9584 14.9862 13.6529 14.8196 13.4862L11.8196 10.4862Z" fill="#252525"/>
</g>
</svg>
