<svg width="275" height="120" viewBox="0 0 275 120" fill="none" xmlns="http://www.w3.org/2000/svg">
<path d="M229.958 107.208C243.328 107.208 254.167 96.3692 254.167 82.9994C254.167 69.6295 243.328 58.791 229.958 58.791C216.588 58.791 205.75 69.6295 205.75 82.9994C205.75 96.3692 216.588 107.208 229.958 107.208Z" fill="#FFDADA" stroke="#FFDADA" stroke-linecap="round" stroke-linejoin="round"/>
<path d="M209.192 29.7331C222.562 29.7331 233.4 18.8946 233.4 5.52474C233.4 -7.84515 222.562 -18.6836 209.192 -18.6836C195.822 -18.6836 184.983 -7.84515 184.983 5.52474C184.983 18.8946 195.822 29.7331 209.192 29.7331Z" fill="#FFDADA" stroke="#FFDADA" stroke-linecap="round" stroke-linejoin="round"/>
<path d="M168.55 127.433C179.246 127.433 187.917 118.762 187.917 108.066C187.917 97.37 179.246 88.6992 168.55 88.6992C157.854 88.6992 149.183 97.37 149.183 108.066C149.183 118.762 157.854 127.433 168.55 127.433Z" fill="#FFDADA" stroke="#FFDADA" stroke-linecap="round" stroke-linejoin="round"/>
<path d="M-18.55 127.433C-7.8541 127.433 0.81665 118.762 0.81665 108.066C0.81665 97.37 -7.8541 88.6992 -18.55 88.6992C-29.2459 88.6992 -37.9167 97.37 -37.9167 108.066C-37.9167 118.762 -29.2459 127.433 -18.55 127.433Z" fill="#FFDADA" stroke="#FFDADA" stroke-linecap="round" stroke-linejoin="round"/>
<path d="M-18.55 77.2997C-7.8541 77.2997 0.81665 68.629 0.81665 57.9331C0.81665 47.2372 -7.8541 38.5664 -18.55 38.5664C-29.2459 38.5664 -37.9167 47.2372 -37.9167 57.9331C-37.9167 68.629 -29.2459 77.2997 -18.55 77.2997Z" fill="#FFDADA" stroke="#FFDADA" stroke-linecap="round" stroke-linejoin="round"/>
<path d="M6.51669 33.8837C17.2126 33.8837 25.8834 25.213 25.8834 14.5171C25.8834 3.82114 17.2126 -4.84961 6.51669 -4.84961C-4.17923 -4.84961 -12.85 3.82114 -12.85 14.5171C-12.85 25.213 -4.17923 33.8837 6.51669 33.8837Z" fill="#FFDADA" stroke="#FFDADA" stroke-linecap="round" stroke-linejoin="round"/>
<path d="M49.9333 8.81732C60.6292 8.81732 69.3 0.146574 69.3 -10.5493C69.3 -21.2453 60.6292 -29.916 49.9333 -29.916C39.2374 -29.916 30.5667 -21.2453 30.5667 -10.5493C30.5667 0.146574 39.2374 8.81732 49.9333 8.81732Z" fill="#FFDADA" stroke="#FFDADA" stroke-linecap="round" stroke-linejoin="round"/>
<path d="M100.067 8.81732C110.763 8.81732 119.433 0.146574 119.433 -10.5493C119.433 -21.2453 110.763 -29.916 100.067 -29.916C89.3707 -29.916 80.7 -21.2453 80.7 -10.5493C80.7 0.146574 89.3707 8.81732 100.067 8.81732Z" fill="#FFDADA" stroke="#FFDADA" stroke-linecap="round" stroke-linejoin="round"/>
<path d="M143.483 33.8837C154.179 33.8837 162.85 25.213 162.85 14.5171C162.85 3.82114 154.179 -4.84961 143.483 -4.84961C132.787 -4.84961 124.117 3.82114 124.117 14.5171C124.117 25.213 132.787 33.8837 143.483 33.8837Z" fill="#FFDADA" stroke="#FFDADA" stroke-linecap="round" stroke-linejoin="round"/>
<path d="M168.55 77.2997C179.246 77.2997 187.917 68.629 187.917 57.9331C187.917 47.2372 179.246 38.5664 168.55 38.5664C157.854 38.5664 149.183 47.2372 149.183 57.9331C149.183 68.629 157.854 77.2997 168.55 77.2997Z" fill="#FFDADA" stroke="#FFDADA" stroke-linecap="round" stroke-linejoin="round"/>
<path d="M133.108 92.6831C138.456 92.6831 142.792 88.3477 142.792 82.9997C142.792 77.6518 138.456 73.3164 133.108 73.3164C127.76 73.3164 123.425 77.6518 123.425 82.9997C123.425 88.3477 127.76 92.6831 133.108 92.6831Z" fill="#FFDADA" stroke="#FFDADA" stroke-linecap="round" stroke-linejoin="round"/>
<path d="M125.325 121.734C130.673 121.734 135.008 117.398 135.008 112.051C135.008 106.703 130.673 102.367 125.325 102.367C119.977 102.367 115.642 106.703 115.642 112.051C115.642 117.398 119.977 121.734 125.325 121.734Z" fill="#FFDADA" stroke="#FFDADA" stroke-linecap="round" stroke-linejoin="round"/>
<path d="M24.675 121.734C30.023 121.734 34.3584 117.398 34.3584 112.051C34.3584 106.703 30.023 102.367 24.675 102.367C19.3271 102.367 14.9917 106.703 14.9917 112.051C14.9917 117.398 19.3271 121.734 24.675 121.734Z" fill="#FFDADA" stroke="#FFDADA" stroke-linecap="round" stroke-linejoin="round"/>
<path d="M16.8917 92.6831C22.2396 92.6831 26.575 88.3477 26.575 82.9997C26.575 77.6518 22.2396 73.3164 16.8917 73.3164C11.5437 73.3164 7.20831 77.6518 7.20831 82.9997C7.20831 88.3477 11.5437 92.6831 16.8917 92.6831Z" fill="#FFDADA" stroke="#FFDADA" stroke-linecap="round" stroke-linejoin="round"/>
<path d="M24.675 63.6342C30.023 63.6342 34.3584 59.2989 34.3584 53.9509C34.3584 48.603 30.023 44.2676 24.675 44.2676C19.3271 44.2676 14.9917 48.603 14.9917 53.9509C14.9917 59.2989 19.3271 63.6342 24.675 63.6342Z" fill="#FFDADA" stroke="#FFDADA" stroke-linecap="round" stroke-linejoin="round"/>
<path d="M45.95 42.3588C51.298 42.3588 55.6333 38.0235 55.6333 32.6755C55.6333 27.3276 51.298 22.9922 45.95 22.9922C40.602 22.9922 36.2667 27.3276 36.2667 32.6755C36.2667 38.0235 40.602 42.3588 45.95 42.3588Z" fill="#FFDADA" stroke="#FFDADA" stroke-linecap="round" stroke-linejoin="round"/>
<path d="M75 34.5757C80.348 34.5757 84.6833 30.2403 84.6833 24.8923C84.6833 19.5444 80.348 15.209 75 15.209C69.652 15.209 65.3167 19.5444 65.3167 24.8923C65.3167 30.2403 69.652 34.5757 75 34.5757Z" fill="#FFDADA" stroke="#FFDADA" stroke-linecap="round" stroke-linejoin="round"/>
<path d="M104.05 42.3588C109.398 42.3588 113.733 38.0235 113.733 32.6755C113.733 27.3276 109.398 22.9922 104.05 22.9922C98.7021 22.9922 94.3667 27.3276 94.3667 32.6755C94.3667 38.0235 98.7021 42.3588 104.05 42.3588Z" fill="#FFDADA" stroke="#FFDADA" stroke-linecap="round" stroke-linejoin="round"/>
<path d="M125.325 63.6342C130.673 63.6342 135.008 59.2989 135.008 53.9509C135.008 48.603 130.673 44.2676 125.325 44.2676C119.977 44.2676 115.642 48.603 115.642 53.9509C115.642 59.2989 119.977 63.6342 125.325 63.6342Z" fill="#FFDADA" stroke="#FFDADA" stroke-linecap="round" stroke-linejoin="round"/>
<path d="M75 109.826C89.6033 109.826 101.442 97.8158 101.442 83.0008C101.442 68.1857 89.6033 56.1758 75 56.1758C60.3967 56.1758 48.5583 68.1857 48.5583 83.0008C48.5583 97.8158 60.3967 109.826 75 109.826Z" fill="#FFDADA" stroke="#FFDADA" stroke-linecap="round" stroke-linejoin="round"/>
</svg>
