<svg width="29" height="28" viewBox="0 0 29 28" fill="none" xmlns="http://www.w3.org/2000/svg">
<g id="SN Icons 28-28">
<path id="icon" d="M5.82752 13.6333C5.82752 13.5541 5.74837 13.475 5.66923 13.475C5.55051 13.475 5.47137 13.5541 5.47137 13.6333L5.27351 16.2054L5.47137 18.8963C5.47137 19.015 5.55051 19.0546 5.66923 19.0546C5.74837 19.0546 5.82752 19.015 5.82752 18.8963L6.06495 16.2054L5.82752 13.6333ZM6.65852 11.813C6.57938 11.813 6.50023 11.8921 6.46066 12.0108L6.2628 16.2054L6.46066 18.8963C6.50023 19.015 6.57938 19.0942 6.65852 19.0942C6.77724 19.0942 6.85638 19.015 6.85638 18.8963L7.09381 16.2054L6.85638 12.0108C6.85638 11.8921 6.77724 11.813 6.65852 11.813ZM7.68738 10.8633C7.56867 10.8633 7.48953 10.9424 7.44995 11.0611L7.29167 16.2054L7.44995 18.8963C7.48953 19.015 7.56867 19.0942 7.68738 19.0942C7.8061 19.0942 7.88524 19.015 7.88524 18.8963L8.0831 16.2054L7.88524 11.0611C7.88524 10.9424 7.8061 10.8633 7.68738 10.8633ZM1.71206 14.7017C1.63292 14.7017 1.63292 14.7413 1.59335 14.7809L1.43506 16.2054L1.59335 17.5904C1.63292 17.63 1.63292 17.6696 1.71206 17.6696C1.75163 17.6696 1.7912 17.63 1.7912 17.5904L2.02863 16.2054L1.7912 14.7809C1.7912 14.7413 1.75163 14.7017 1.71206 14.7017ZM2.62221 13.8311C2.58264 13.8311 2.54307 13.8707 2.54307 13.9103L2.26606 16.2054L2.54307 18.4214C2.54307 18.5006 2.58264 18.5402 2.62221 18.5402C2.70135 18.5402 2.74092 18.5006 2.74092 18.4214L3.01793 16.2054L2.74092 13.9103C2.74092 13.8707 2.70135 13.8311 2.62221 13.8311ZM3.65107 13.3563C3.57193 13.3563 3.53236 13.4354 3.49279 13.5146L3.29493 16.2054L3.49279 18.8172C3.53236 18.8567 3.57193 18.9359 3.65107 18.9359C3.69064 18.9359 3.76979 18.8567 3.76979 18.8172L4.04679 16.2054L3.76979 13.5146C3.76979 13.4354 3.69064 13.3563 3.65107 13.3563ZM4.64036 13.2771C4.56122 13.2771 4.48208 13.3563 4.48208 13.4354L4.28422 16.2054L4.48208 18.8963C4.48208 18.9755 4.56122 19.015 4.64036 19.015C4.71951 19.015 4.79865 18.9755 4.79865 18.8963L5.03608 16.2054L4.79865 13.4354C4.79865 13.3563 4.71951 13.2771 4.64036 13.2771ZM14.1771 8.88467C14.1376 8.8451 14.098 8.8451 14.0189 8.8451C13.9397 8.8451 13.8606 8.88467 13.821 8.92425C13.7419 8.96382 13.6627 9.08253 13.6627 9.16168V9.20125L13.544 16.2054L13.6231 17.4717L13.6627 18.738C13.7023 18.9359 13.8606 19.0942 14.0189 19.0942C14.2167 19.0942 14.375 18.9359 14.375 18.738L14.5333 16.2054L14.375 9.16168C14.3354 9.04296 14.2959 8.96382 14.1771 8.88467ZM13.1483 9.51782C13.0691 9.47825 13.0296 9.43868 12.9504 9.43868C12.9108 9.43868 12.8317 9.47825 12.7921 9.51782C12.713 9.55739 12.6338 9.63654 12.6338 9.75525V9.83439L12.5151 16.2054C12.5151 16.2054 12.5151 16.2054 12.6338 18.7776V18.8172C12.6338 18.8567 12.6734 18.9359 12.713 18.9755C12.7921 19.0546 12.8713 19.0942 12.9504 19.0942C13.0691 19.0942 13.1483 19.0546 13.1878 19.015C13.267 18.9755 13.267 18.8963 13.267 18.7776L13.3066 18.5402L13.4253 16.2054L13.3066 9.75525C13.267 9.63654 13.2274 9.55739 13.1483 9.51782ZM8.71625 10.3884C8.59753 10.3884 8.47882 10.5071 8.47882 10.6258L8.32053 16.2054L8.47882 18.8567C8.51839 18.9755 8.59753 19.0942 8.71625 19.0942C8.87453 19.0942 8.95368 18.9755 8.95368 18.8567L9.15154 16.2054L8.95368 10.6258C8.95368 10.5071 8.87453 10.3884 8.71625 10.3884ZM23.6348 12.8814C23.1995 12.8814 22.8038 12.9606 22.408 13.1188C22.1706 10.3093 19.8359 8.13281 16.9472 8.13281C16.2349 8.13281 15.5621 8.25153 14.9686 8.48896C14.7311 8.5681 14.652 8.64724 14.652 8.8451V18.738C14.652 18.9359 14.8103 19.0546 15.0081 19.0942H23.6348C25.3364 19.0942 26.7214 17.7092 26.7214 16.0076C26.7609 14.2664 25.3364 12.8814 23.6348 12.8814ZM11.882 10.5071C11.7237 10.5071 11.605 10.6258 11.5654 10.7841L11.4467 16.2054L11.5654 18.8172C11.605 18.9755 11.7237 19.0942 11.882 19.0942C12.0403 19.0942 12.1986 18.9755 12.1986 18.8172L12.3568 16.2054L12.1986 10.7841C12.159 10.6258 12.0403 10.5071 11.882 10.5071ZM9.78468 10.1905C9.6264 10.1905 9.50768 10.3093 9.50768 10.428L9.34939 16.2054L9.50768 18.8567C9.54725 18.9755 9.6264 19.0942 9.78468 19.0942C9.9034 19.0942 10.0221 18.9755 10.0221 18.8567L10.22 16.2054L10.0221 10.428C10.0221 10.3093 9.9034 10.1905 9.78468 10.1905ZM10.8135 10.3093C10.6553 10.3093 10.5365 10.428 10.5365 10.5863L10.4178 16.2054L10.5365 18.8172C10.5761 18.9755 10.6948 19.0942 10.8135 19.0942C10.9718 19.0942 11.0905 18.9755 11.0905 18.8172L11.2488 16.2054L11.0905 10.5863C11.0905 10.428 10.9718 10.3093 10.8135 10.3093Z" fill="#252525"/>
</g>
</svg>
