<svg width="29" height="28" viewBox="0 0 29 28" fill="none" xmlns="http://www.w3.org/2000/svg">
<g id="SN Icons 28-28">
<path id="Vector" d="M15.9307 10.7961L15.9321 10.8713L12.2042 16.287C11.6005 16.2594 10.9949 16.3656 10.4198 16.6022C10.1694 16.7039 9.93036 16.8316 9.70655 16.9831L1.51994 13.6089C1.51994 13.6089 1.33045 16.7255 2.11983 19.0479L7.90735 21.4361C8.19302 22.7349 9.08809 23.8737 10.4031 24.4212C11.4376 24.8511 12.6005 24.8528 13.6363 24.4259C14.6721 23.999 15.4961 23.1785 15.9273 22.1445C16.1574 21.5938 16.2684 21.0006 16.253 20.4039L21.582 16.5927L21.713 16.595C24.9052 16.595 27.5 13.9927 27.5 10.7961C27.5 7.59953 24.91 5.00667 21.713 5C18.5221 5 15.9259 7.59953 15.9259 10.7961H15.9307ZM15.0356 21.7703C14.3433 23.4367 12.4332 24.2208 10.773 23.529C10.0363 23.2194 9.43916 22.6497 9.09523 21.9284L10.9792 22.7092C11.2702 22.8303 11.5823 22.8929 11.8975 22.8934C12.2127 22.8939 12.525 22.8323 12.8164 22.7121C13.1078 22.5919 13.3727 22.4154 13.5959 22.1928C13.8191 21.9702 13.9962 21.7058 14.1172 21.4146C14.3621 20.8264 14.3636 20.1651 14.1212 19.5758C13.8788 18.9865 13.4125 18.5175 12.8246 18.2719L10.8725 17.4649C11.6238 17.1792 12.478 17.1697 13.2769 17.5015C14.0862 17.8362 14.7052 18.4666 15.0365 19.2727C15.3679 20.0787 15.366 20.9676 15.0318 21.7703M21.7182 14.6597C20.6953 14.6569 19.7151 14.2488 18.9925 13.5248C18.2698 12.8009 17.8636 11.82 17.8627 10.797C17.8638 9.77428 18.2702 8.79364 18.9928 8.06986C19.7154 7.34608 20.6954 6.93813 21.7182 6.93536C22.7411 6.93788 23.7213 7.34571 24.4442 8.06952C25.167 8.79333 25.5735 9.77412 25.5746 10.797C25.5738 11.8201 25.1674 12.8012 24.4445 13.5252C23.7217 14.2492 22.7413 14.6572 21.7182 14.6597ZM18.8292 10.7909C18.8286 10.0223 19.1331 9.2849 19.6759 8.74076C20.2187 8.19663 20.9553 7.89026 21.7239 7.889C23.3212 7.889 24.6205 9.18877 24.6205 10.7909C24.6209 11.5596 24.316 12.297 23.7728 12.841C23.2296 13.385 22.4926 13.691 21.7239 13.6918C20.9554 13.6906 20.2188 13.3844 19.6759 12.8405C19.1331 12.2966 18.8288 11.5594 18.8292 10.7909Z" fill="#252525"/>
</g>
</svg>
