<svg width="29" height="28" viewBox="0 0 29 28" fill="none" xmlns="http://www.w3.org/2000/svg">
<g id="SN Icons 28-28">
<path id="icon" d="M23.6061 10.0641C24.4555 9.42705 25.22 8.66254 25.8146 7.77062C25.0501 8.1104 24.1582 8.36523 23.2663 8.45018C24.2007 7.89803 24.8802 7.04858 25.22 5.98676C24.3706 6.49643 23.3937 6.87869 22.4168 7.09105C21.5674 6.19913 20.4206 5.68945 19.1464 5.68945C16.683 5.68945 14.6868 7.68567 14.6868 10.1491C14.6868 10.4889 14.7293 10.8287 14.8142 11.1684C11.1191 10.9561 7.80621 9.17222 5.59763 6.49643C5.21537 7.13353 5.00301 7.89803 5.00301 8.74749C5.00301 10.2765 5.76752 11.6356 6.99923 12.4426C6.27719 12.4001 5.55516 12.2303 4.96054 11.8905V11.9329C4.96054 14.0991 6.48956 15.8829 8.52825 16.3076C8.18847 16.3926 7.76374 16.4775 7.38148 16.4775C7.08417 16.4775 6.82934 16.4351 6.53203 16.3926C7.08417 18.1764 8.74061 19.4506 10.6944 19.4931C9.16534 20.6823 7.25407 21.4044 5.1729 21.4044C4.79065 21.4044 4.45087 21.3619 4.11108 21.3194C6.06483 22.5936 8.40083 23.3156 10.9492 23.3156C19.1464 23.3156 23.6061 16.5625 23.6061 10.6588C23.6061 10.4464 23.6061 10.2765 23.6061 10.0641Z" fill="#252525"/>
</g>
</svg>
