<svg width="28" height="28" viewBox="0 0 28 28" fill="none" xmlns="http://www.w3.org/2000/svg">
<g id="Icons">
<path id="icon" d="M14.05 9.90342V9.86191L13.9955 9.86687L13.9927 9.86713C13.5936 9.90341 13.1884 9.94024 12.819 10.0511L12.7562 10.0699L12.7909 10.1255C12.9666 10.4065 13.0387 10.7606 13.075 11.0861C13.0735 12.1868 12.1492 13.075 11.0833 13.075C10.7236 13.075 10.3711 13.0028 10.128 12.8291L10.0711 12.7885L10.0511 12.8554C9.94078 13.223 9.86667 13.5926 9.86667 14C9.86667 16.288 11.712 18.1333 14 18.1333C16.288 18.1333 18.1333 16.288 18.1333 14C18.1333 11.7646 16.3146 9.93007 14.05 9.90342ZM24.3989 13.4672L24.3987 13.4669C22.4221 9.58681 18.4681 6.95 14 6.95C9.49553 6.95 5.54151 9.58673 3.56482 13.4669L3.56465 13.4672C3.48756 13.6214 3.45 13.8117 3.45 14C3.45 14.224 3.48729 14.4145 3.56465 14.5692L3.56482 14.5696C5.54164 18.45 9.49581 21.05 14 21.05C18.4678 21.05 22.4219 18.4499 24.3987 14.5696L24.3989 14.5692C24.476 14.415 24.5135 14.2248 24.5135 14.0365C24.5135 13.8125 24.4763 13.622 24.3989 13.4672ZM14 19.2C10.4183 19.2 7.12461 17.2151 5.37977 14C7.12461 10.7849 10.4183 8.8 14 8.8C17.5453 8.8 20.8389 10.7849 22.5838 14C20.8389 17.2151 17.5453 19.2 14 19.2Z" fill="#252525" stroke="#252525" stroke-width="0.1"/>
</g>
</svg>
