<svg width="29" height="28" viewBox="0 0 29 28" fill="none" xmlns="http://www.w3.org/2000/svg">
<g id="SN Icons 28-28">
<path id="icon" d="M26.3218 7.67435C26.4594 7.12435 26.3218 6.66602 25.4967 6.66602H22.792C22.1044 6.66602 21.7835 7.03268 21.6001 7.44518C21.6001 7.44518 20.2249 10.791 18.2995 12.991C17.6577 13.5868 17.3827 13.816 17.0159 13.816C16.8784 13.816 16.6034 13.5868 16.6034 13.0368V7.67435C16.6034 6.98685 16.42 6.66602 15.8241 6.66602H11.6066C11.1482 6.66602 10.919 6.98685 10.919 7.30768C10.919 7.94935 11.8817 8.08685 11.9734 9.92018V13.9077C11.9734 14.7785 11.8358 14.9618 11.4691 14.9618C10.5523 14.9618 8.35185 11.5702 7.02244 7.72018C6.74739 6.98685 6.47234 6.66602 5.78471 6.66602H3.08004C2.34658 6.66602 2.16321 7.03268 2.16321 7.44518C2.16321 8.17852 3.08004 11.7077 6.42649 16.4285C8.67274 19.6368 11.8358 21.3327 14.678 21.3327C16.3742 21.3327 16.6034 20.966 16.6034 20.3243C16.6034 17.2535 16.4658 16.9327 17.291 16.9327C17.7036 16.9327 18.3912 17.1618 19.9957 18.7202C21.8293 20.5535 22.1502 21.3327 23.1587 21.3327H25.8634C26.6427 21.3327 27.0095 20.966 26.7803 20.1868C26.276 18.6285 22.8379 15.3285 22.6545 15.0993C22.2419 14.5952 22.3794 14.366 22.6545 13.9077C22.6545 13.9077 25.9551 9.23268 26.3218 7.67435Z" fill="#252525"/>
</g>
</svg>
